Coordinates
version=1
nRows=16
nColumns=40
inDegrees=yes

Units are S.I. units (second, meters, Newtons, ...)
Angles are in degrees.

endheader
time	pelvis_tilt	pelvis_list	pelvis_rotation	pelvis_tx	pelvis_ty	pelvis_tz	hip_flexion_r	hip_adduction_r	hip_rotation_r	knee_angle_r	knee_angle_r_beta	ankle_angle_r	subtalar_angle_r	mtp_angle_r	hip_flexion_l	hip_adduction_l	hip_rotation_l	knee_angle_l	knee_angle_l_beta	ankle_angle_l	subtalar_angle_l	mtp_angle_l	lumbar_extension	lumbar_bending	lumbar_rotation	arm_flex_r	arm_add_r	arm_rot_r	elbow_flex_r	pro_sup_r	wrist_flex_r	wrist_dev_r	arm_flex_l	arm_add_l	arm_rot_l	elbow_flex_l	pro_sup_l	wrist_flex_l	wrist_dev_l
      0.90142857	    -10.00283745	     -6.72540349	      2.61153028	      1.05613652	      0.91236731	      0.47410133	      2.04584740	      4.51013924	    -17.63899240	      6.35281797	      6.35281797	     15.71012238	      8.55501923	     -2.59820698	     41.08656849	     -8.65288532	      4.21077729	     22.51166090	     22.51166090	      7.56155181	     -8.12258878	     14.86746319	    -10.77172796	      4.07365516	      5.00829218	     56.74723922	    -14.06952290	      5.04185787	    111.71267047	     43.97276336	      0.00000000	      0.00000000	    -16.03912745	     -5.90989896	      3.39972523	     30.71650158	     44.50231490	      0.00000000	      0.00000000
      0.91285714	    -10.00607446	     -6.83909379	      2.30213050	      1.05848751	      0.91036619	      0.47250223	      1.36144469	      4.51591670	    -17.31973868	      6.47135995	      6.47135995	     16.30647722	      8.67638700	     -2.58665151	     40.44674973	     -8.86712018	      3.41874569	     22.31862854	     22.31862854	      7.04270517	     -8.40569875	     14.77951739	    -10.34179840	      4.15144301	      5.15229255	     57.19896595	    -13.63707885	      5.20294418	    112.16375343	     43.96099238	      0.00000000	      0.00000000	    -16.37205404	     -5.93435422	      3.45870897	     30.77524189	     44.49533890	      0.00000000	      0.00000000
      0.92428571	     -9.90570266	     -6.96665023	      2.05007436	      1.06099679	      0.90853194	      0.47079901	      0.70751971	      4.48660219	    -16.93658219	      6.95612534	      6.95612534	     17.68885309	      8.68233007	     -0.40470653	     39.53108064	     -9.06346405	      2.73319275	     21.91380718	     21.91380718	      4.50238093	     -9.34762790	      9.85699979	    -10.06931474	      4.23961486	      4.96852182	     57.51580571	    -13.07397612	      5.69367274	    112.90478150	     44.00262455	      0.00000000	      0.00000000	    -17.15481644	     -6.20868299	      4.17856553	     32.21603699	     44.48085984	      0.00000000	      0.00000000
      0.93571429	     -9.91894481	     -7.02618784	      1.81613510	      1.06324849	      0.90681109	      0.46897119	      0.11005978	      4.38551175	    -16.66817034	      7.18875586	      7.18875586	     18.16238774	      8.70076742	     -0.55748004	     39.08323601	     -9.19544089	      2.09376636	     22.35782679	     22.35782679	      3.98740513	     -9.73679800	      9.94627067	     -9.64900487	      4.24871976	      4.97445678	     57.50592459	    -12.86517633	      5.76668248	    113.08139110	     43.99672073	      0.00000000	      0.00000000	    -17.14361765	     -6.29050117	      4.18904299	     32.17707849	     44.48253678	      0.00000000	      0.00000000
      0.94714286	     -9.80236161	     -6.94473067	      1.56866921	      1.06548816	      0.90528886	      0.46702300	     -0.14043491	      4.00769714	    -15.90366778	      8.39642129	      8.39642129	     19.07383254	      7.77800900	     -0.01886685	     38.49238363	     -9.17412012	      1.63287287	     22.87077159	     22.87077159	      2.21285312	    -10.95463462	      6.24885583	     -9.44975298	      4.11833668	      5.07830443	     57.18892631	    -12.44487051	      5.78007872	    114.35269639	     44.03069817	      0.00000000	      0.00000000	    -16.77729980	     -6.41746260	      4.83100546	     31.70780019	     44.51028464	      0.00000000	      0.00000000
      0.95857143	     -9.73169763	     -6.84752567	      1.40908091	      1.06743009	      0.90408278	      0.46486708	     -0.30074187	      3.57650696	    -15.55178067	      9.60372763	      9.60372763	     19.63892677	      7.22287504	     -0.30252799	     38.21675298	     -9.09939058	      1.29774699	     23.91147695	     23.91147695	      1.99164823	    -11.56224328	      5.81210596	     -9.21171396	      3.97984032	      4.86877155	     56.82121696	    -12.00261579	      5.96372465	    114.85938648	     44.02015092	      0.00000000	      0.00000000	    -16.49937223	     -6.53032538	      4.91629330	     31.64275150	     44.52194372	      0.00000000	      0.00000000
      0.97000000	     -9.60654620	     -6.71251423	      1.28849474	      1.06912626	      0.90338674	      0.46252448	     -0.34560880	      3.06661983	    -15.03714313	     11.07901791	     11.07901791	     20.03306284	      6.40632012	     -0.60949449	     37.93841160	     -8.94356334	      1.14532095	     25.04264628	     25.04264628	      1.93249295	    -12.15539473	      5.30615371	     -9.13867608	      3.80729691	      4.67945480	     56.13422017	    -11.75532342	      6.06554250	    115.36931257	     44.01037069	      0.00000000	      0.00000000	    -15.96144561	     -6.68102171	      4.99204049	     31.51167274	     44.53820992	      0.00000000	      0.00000000
      0.98142857	     -9.45555366	     -6.55213018	      1.21784123	      1.07058302	      0.90309193	      0.46002085	     -0.21324495	      2.49151245	    -14.52436430	     12.88607199	     12.88607199	     20.31802587	      5.35056436	     -1.05964339	     37.65937300	     -8.71846732	      1.11684322	     26.18572266	     26.18572266	      2.14544445	    -12.70908490	      4.85741587	     -9.13034492	      3.61899833	      4.52136755	     55.19411114	    -11.62696039	      6.11828590	    115.90992375	     44.00062948	      0.00000000	      0.00000000	    -15.18978883	     -6.85468320	      5.06938935	     31.27395321	     44.55877364	      0.00000000	      0.00000000
      0.99285714	     -9.27022069	     -6.39378480	      1.17564636	      1.07182666	      0.90326411	      0.45733944	      0.06785618	      1.87226312	    -14.05368407	     14.99152819	     14.99152819	     20.40409801	      4.24279931	     -1.66334882	     37.33520251	     -8.45691957	      1.16566037	     27.28161161	     27.28161161	      2.62659352	    -13.17209838	      4.56746696	     -9.20830799	      3.45237829	      4.36421628	     54.03713040	    -11.59687459	      6.16051503	    116.35405283	     43.99163408	      0.00000000	      0.00000000	    -14.25633141	     -7.02275420	      5.12680158	     31.00594030	     44.58246606	      0.00000000	      0.00000000
      1.00428571	     -9.08105833	     -6.25561166	      1.17281557	      1.07284169	      0.90387994	      0.45454713	      0.47518811	      1.30371818	    -13.38789371	     17.20813791	     17.20813791	     19.81157389	      2.54444666	     -3.42384241	     36.97623814	     -8.15257942	      1.35466807	     28.29189436	     28.29189436	      3.61771494	    -13.48964193	      5.26898382	     -9.33861274	      3.33633750	      4.79161852	     52.28867499	    -12.23962584	      5.65812787	    117.52805066	     44.01228827	      0.00000000	      0.00000000	    -12.41108982	     -7.15234919	      5.35581144	     29.45669689	     44.65524511	      0.00000000	      0.00000000
      1.01571429	     -8.84203941	     -6.10373979	      1.15170524	      1.07375853	      0.90483641	      0.45163293	      1.06141632	      0.58012525	    -13.15973578	     19.89900264	     19.89900264	     19.50145650	      1.66201257	     -4.19436668	     36.46374934	     -7.86807794	      1.38364356	     29.09834577	     29.09834577	      4.40532769	    -13.71234548	      5.05977032	     -9.53084905	      3.22841597	      4.49687746	     50.77107564	    -12.17187957	      5.88314353	    117.38993484	     44.01029543	      0.00000000	      0.00000000	    -11.44456396	     -7.34443614	      5.32390580	     29.52185255	     44.68797946	      0.00000000	      0.00000000
      1.02714286	     -8.66203739	     -5.97972813	      1.14155766	      1.07444986	      0.90599207	      0.44872404	      1.94283908	     -0.13533344	    -12.87677713	     22.94457918	     22.94457918	     18.86017277	      0.46607426	     -5.18038210	     35.89901237	     -7.57653535	      1.46961112	     29.64894493	     29.64894493	      5.23259567	    -13.89610286	      5.04892370	     -9.66659032	      3.15771694	      4.31662229	     49.01292345	    -12.30182088	      6.03134097	    117.18031003	     44.01241673	      0.00000000	      0.00000000	    -10.27875765	     -7.54580811	      5.22564865	     29.54748675	     44.73497108	      0.00000000	      0.00000000
      1.03857143	     -8.55682121	     -5.89903298	      1.10649327	      1.07491164	      0.90732577	      0.44581868	      2.90087114	     -0.72516730	    -12.35900318	     25.68212707	     25.68212707	     16.33129760	     -1.79716489	    -10.27305088	     35.41232458	     -7.31476994	      1.56642005	     30.21406597	     30.21406597	      6.85618059	    -13.74207404	      7.07871263	     -9.77553168	      3.16309407	      4.70777105	     46.75130124	    -12.97125582	      5.54250397	    117.44827407	     44.09580946	      0.00000000	      0.00000000	     -8.28886210	     -7.45442943	      4.17712843	     28.18677759	     45.05692557	      0.00000000	      0.00000000
      1.05000000	     -8.38308260	     -5.79764829	      1.01101131	      1.07536370	      0.90885279	      0.44308953	      4.11105740	     -1.46241962	    -12.07656768	     29.16274459	     29.16274459	     15.19250630	     -2.95833828	    -10.87138262	     34.63656316	     -7.10769589	      1.45232667	     30.35466496	     30.35466496	      7.52860330	    -13.81071571	      6.85308965	     -9.93582389	      3.14363269	      4.53451904	     44.68072191	    -13.09482559	      5.80861654	    116.69955453	     44.10761897	      0.00000000	      0.00000000	     -7.23408211	     -7.70750444	      3.96992415	     28.57933959	     45.11512623	      0.00000000	      0.00000000
      1.06142857	     -8.31613034	     -5.73897183	      0.87208707	      1.07563677	      0.91030851	      0.44054778	      5.60835090	     -2.10914267	    -11.64222290	     32.80912527	     32.80912527	     13.60500892	     -4.52336592	    -11.58001858	     33.87834652	     -6.95168216	      1.34183663	     30.29808863	     30.29808863	      8.15914890	    -13.87820527	      6.73271796	     -9.97337785	      3.16781715	      4.51644633	     42.47666112	    -13.39060842	      5.91921734	    115.68481345	     44.13365240	      0.00000000	      0.00000000	     -6.12109957	     -7.94998552	      3.60330002	     29.03617585	     45.20020669	      0.00000000	      0.00000000
      1.07285714	     -8.28100311	     -5.69777322	      0.68121371	      1.07575147	      0.91176533	      0.43827376	      7.25705387	     -2.67152305	    -11.10236445	     36.49543677	     36.49543677	     11.60244549	     -6.41043332	    -12.29138099	     33.10489168	     -6.85985538	      1.12772892	     30.13340318	     30.13340318	      8.68062303	    -13.91886794	      6.67544014	     -9.96892044	      3.19360493	      4.59222772	     40.15507370	    -13.73209992	      5.89107047	    114.35730124	     44.17534559	      0.00000000	      0.00000000	     -5.00124024	     -8.18101371	      3.00488772	     29.62143696	     45.32157567	      0.00000000	      0.00000000
